<?xml version="1.0" standalone="no"?>
<!DOCTYPE svg PUBLIC "-//W3C//DTD SVG 20010904//EN"
 "http://www.w3.org/TR/2001/REC-SVG-20010904/DTD/svg10.dtd">
<svg version="1.0" xmlns="http://www.w3.org/2000/svg"
 width="2000.000000pt" height="2037.000000pt" viewBox="0 0 2000.000000 2037.000000"
 preserveAspectRatio="xMidYMid meet">

<g transform="translate(0.000000,2037.000000) scale(0.100000,-0.100000)"
fill="#000000" stroke="none">
<path d="M5685 18679 c-792 -19 -1244 -92 -1710 -276 -786 -310 -1447 -928
-1815 -1697 -221 -461 -320 -930 -361 -1706 -13 -251 -21 -9354 -9 -9862 17
-706 72 -1106 212 -1538 129 -400 378 -839 651 -1150 416 -473 963 -832 1532
-1005 350 -106 658 -155 1180 -188 295 -18 9146 -18 9455 1 668 39 1104 128
1517 307 721 314 1319 877 1663 1563 168 337 283 688 331 1017 6 39 15 98 20
132 15 106 38 425 49 708 8 191 10 1681 7 5105 -4 5047 -3 4960 -42 5355 -50
501 -154 893 -344 1290 -151 316 -342 590 -594 851 -386 400 -835 693 -1317
858 -456 157 -851 215 -1610 236 -394 11 -8371 10 -8815 -1z m9862 -2866 c-4
-16 -78 -383 -166 -818 -88 -434 -185 -914 -216 -1065 -31 -151 -119 -590
-197 -975 -77 -385 -142 -702 -143 -704 -2 -2 -183 171 -402 383 l-398 387
-175 -178 c-96 -98 -264 -270 -375 -383 -110 -113 -328 -336 -485 -495 -157
-160 -384 -392 -505 -515 -121 -124 -479 -488 -796 -810 -316 -322 -786 -801
-1044 -1065 -694 -711 -672 -689 -734 -710 -77 -25 -171 -17 -242 21 -54 29
-155 125 -794 754 -154 151 -375 367 -490 480 -116 113 -378 371 -583 572
l-374 367 21 26 c17 22 441 458 963 990 l128 130 332 -330 c612 -608 896 -885
905 -885 13 0 223 213 1498 1520 357 366 784 802 950 970 472 479 610 620 613
629 3 8 -56 65 -506 495 -166 158 -302 292 -302 296 0 4 71 26 158 49 86 24
256 70 377 103 121 33 380 102 575 153 195 52 414 109 485 129 244 65 810 217
1095 293 157 42 398 106 535 144 138 37 261 68 274 68 21 1 23 -2 18 -26z
m-5679 -862 c399 -23 773 -91 1137 -208 468 -151 924 -386 1300 -672 54 -42
104 -79 109 -83 6 -4 -140 -158 -340 -360 -193 -194 -470 -473 -614 -620 -145
-147 -272 -270 -282 -274 -12 -3 -57 17 -131 59 -334 192 -589 289 -922 352
-172 32 -307 45 -479 45 -961 0 -1867 -542 -2349 -1405 -119 -213 -232 -507
-281 -729 -65 -293 -60 -68 -64 -2796 -2 -1676 0 -2486 7 -2510 33 -114 186
-133 246 -30 19 34 20 54 26 785 l5 750 26 105 c67 270 185 477 377 663 185
179 410 301 666 360 87 20 125 21 1090 27 864 6 1013 9 1095 24 718 124 1318
553 1665 1190 214 392 305 914 239 1368 l-6 46 313 318 c322 327 744 756 951
969 76 78 121 116 127 110 17 -18 119 -272 176 -436 92 -268 159 -577 197
-904 8 -66 13 -226 12 -400 0 -236 -4 -325 -23 -475 -55 -458 -178 -889 -366
-1278 -127 -261 -232 -435 -398 -657 -400 -533 -879 -931 -1493 -1238 -390
-195 -777 -313 -1244 -379 -146 -20 -201 -22 -912 -25 l-758 -4 0 -442 c0
-243 -5 -494 -10 -557 -35 -391 -188 -756 -450 -1073 -148 -180 -398 -373
-625 -483 -619 -299 -1373 -222 -1915 197 -456 352 -712 830 -760 1419 -16
193 -8 5055 8 5195 60 515 154 894 324 1305 329 798 890 1484 1629 1996 287
197 633 375 975 499 364 132 858 233 1249 254 223 12 284 12 473 2z"/>
<path d="M14820 15360 c-179 -49 -462 -125 -630 -170 -168 -45 -462 -124 -655
-176 -192 -51 -483 -129 -645 -172 -162 -43 -295 -83 -295 -89 0 -6 144 -149
320 -318 176 -170 320 -312 320 -316 0 -5 -86 -95 -190 -201 -105 -106 -291
-296 -415 -423 -123 -126 -328 -336 -455 -465 -128 -129 -609 -622 -1070
-1095 -461 -473 -948 -970 -1080 -1104 l-242 -244 -393 384 c-216 211 -496
485 -623 608 l-229 224 -161 -164 c-89 -90 -252 -255 -362 -367 l-200 -203
135 -131 c74 -72 254 -249 400 -392 300 -296 1166 -1145 1340 -1314 l115 -111
205 207 c113 114 392 398 620 632 228 234 527 540 665 680 138 140 361 367
496 505 703 718 1075 1097 1650 1680 158 160 351 356 429 438 79 81 148 147
154 146 6 0 148 -135 316 -299 243 -239 306 -296 312 -282 4 9 37 166 74 347
68 340 218 1082 368 1820 47 231 86 428 86 438 0 10 -7 17 -17 16 -10 0 -164
-40 -343 -89z"/>
<path d="M9247 14654 c-674 -70 -1327 -300 -1872 -659 -640 -422 -1171 -1035
-1500 -1730 -199 -423 -331 -926 -377 -1440 -19 -209 -19 -5091 0 -5220 44
-300 167 -589 346 -814 85 -105 255 -263 362 -334 263 -175 510 -254 824 -264
293 -9 512 37 765 162 406 200 721 591 835 1036 52 199 53 219 59 849 7 662 3
630 74 664 32 14 110 16 794 16 800 0 901 5 1178 50 414 67 879 232 1240 440
520 298 959 709 1293 1210 527 791 730 1787 561 2750 -32 181 -137 570 -154
570 -5 0 -780 -782 -905 -913 l-74 -78 -1 -257 c-2 -206 -6 -283 -23 -387 -71
-448 -235 -827 -513 -1185 -93 -120 -305 -334 -429 -432 -326 -260 -759 -457
-1155 -527 -181 -32 -231 -34 -1200 -40 l-990 -7 -90 -27 c-181 -56 -323 -136
-448 -256 -188 -179 -291 -379 -326 -636 -7 -48 -11 -327 -11 -750 0 -453 -4
-691 -11 -727 -28 -135 -127 -262 -246 -315 -78 -34 -196 -42 -278 -19 -140
41 -248 151 -289 297 -15 50 -16 289 -13 2550 3 2299 4 2503 20 2609 55 367
176 745 332 1035 138 258 300 478 510 694 438 449 965 735 1580 855 239 47
623 60 865 31 362 -45 657 -134 998 -303 l153 -76 98 100 c53 54 247 250 430
435 l332 336 -123 80 c-166 108 -282 173 -459 254 -433 198 -903 326 -1372
374 -177 18 -613 18 -790 -1z"/>
</g>
</svg>
